<svg xmlns="http://www.w3.org/2000/svg" width="307.5" height="261.019" viewBox="0 0 307.5 261.019"><defs><style>.a{opacity:0.124;}.b{fill:none;stroke:#fff;stroke-linecap:round;stroke-linejoin:round;stroke-width:7.65px;}.c{fill:#fff;font-size:114px;font-family:MyriadPro-Regular, Myriad Pro;}</style></defs><g class="a" transform="translate(-241.63 -459.465)"><g transform="translate(245.455 463.29)"><path class="b" d="M257.37,515.094l139.889-51.8,19.179,51.8" transform="translate(-187.023 -463.29)"/><path class="b" d="M517.819,534.569V495.728a23.667,23.667,0,0,0-23.663-23.663H269.124a23.664,23.664,0,0,0-23.669,23.663V649.955a23.667,23.667,0,0,0,23.669,23.674H494.156a23.669,23.669,0,0,0,23.663-23.674V611.119" transform="translate(-245.455 -420.26)"/><path class="b" d="M4.4,0H140.587a1.341,1.341,0,0,1,1.341,1.341V75.213a1.341,1.341,0,0,1-1.341,1.341H4.4a4.4,4.4,0,0,1-4.4-4.4V4.4A4.4,4.4,0,0,1,4.4,0Z" transform="translate(157.921 114.305)"/><circle class="b" cx="12.132" cy="12.132" r="12.132" transform="translate(191.35 140.45)"/></g><text class="c" transform="translate(299.507 651.367)"><tspan x="0" y="0">€</tspan></text></g></svg>