<svg xmlns="http://www.w3.org/2000/svg" width="206.104" height="305.246" viewBox="0 0 206.104 305.246"><defs><style>.a{opacity:0.253;}.b{fill:none;stroke:#fff;stroke-linecap:round;stroke-linejoin:round;stroke-width:5.65px;}</style></defs><g class="a" transform="translate(-248.317 -344.444)"><path class="b" d="M390.812,385.4l17.83,106.636-76.465-19.915-76.465,20.255L273.47,385.892" transform="translate(19.192 154.489)"/><path class="b" d="M351.367,556.72c-10.78,0-19.691-11.012-29.42-14.169-10.088-3.273-23.747.283-32.138-5.829-8.477-6.168-9.29-20.3-15.458-28.779-6.107-8.39-19.332-13.492-22.605-23.575-3.162-9.734,4.435-21.59,4.435-32.37s-7.6-22.641-4.435-32.37c3.273-10.083,16.5-15.185,22.605-23.58,6.168-8.476,6.981-22.61,15.458-28.778,8.391-6.107,22.05-2.551,32.138-5.824,9.729-3.162,18.64-14.175,29.42-14.175s19.7,11.012,29.425,14.175c10.083,3.273,23.742-.283,32.138,5.824,8.476,6.168,9.284,20.3,15.458,28.778,6.107,8.4,19.332,13.5,22.606,23.58,3.157,9.729-4.435,21.585-4.435,32.37s7.592,22.636,4.435,32.365c-3.274,10.088-16.5,15.19-22.606,23.58-6.173,8.482-6.981,22.611-15.458,28.779-8.4,6.112-22.055,2.551-32.138,5.829C371.062,545.707,362.152,556.72,351.367,556.72Z" transform="translate(0 0)"/><circle class="b" cx="73.391" cy="73.391" r="73.391" transform="translate(277.978 378.604)"/><path class="b" d="M305.486,359.634l11.928,28.709,31.257,2.667-23.886,20.021,7.391,30.746-26.69-16.724L278.8,441.777l7.391-30.746L262.3,391.01l31.257-2.667Z" transform="translate(45.883 50.098)"/><line class="b" x1="15.587" y2="93.608" transform="translate(304.425 543.805)"/><line class="b" x2="14.733" y2="92.267" transform="translate(383.196 545.146)"/></g></svg>