<svg xmlns="http://www.w3.org/2000/svg" xmlns:xlink="http://www.w3.org/1999/xlink" preserveAspectRatio="xMidYMid" width="1097" height="310" viewBox="0 0 1097 310">
  <defs>
    <style>
      .cls-1, .cls-2 {
        font-size: 24.0446px;
      }

      .cls-2, .cls-4, .cls-6 {
        fill: #fff;
      }

      .cls-2, .cls-4 {
        text-anchor: middle;
        font-family: "Exo-Bold";
        font-weight: bold;
      }

      .cls-3, .cls-4 {
        font-size: 24px;
      }

      .cls-5 {
        fill: #ff5134;
      }

      .cls-5, .cls-6 {
        fill-rule: evenodd;
      }
    </style>
  </defs>
  <text transform="matrix(5.5314, 0, 0, 5.5314, 814, 308)" class="cls-1"><tspan x="0" class="cls-2">WELD</tspan></text>
  <text transform="matrix(5.5314, 0, 0, 5.5314, 814, 137)" class="cls-3"><tspan x="0" class="cls-4">AUTO</tspan></text>
  <g>
    <path d="M495.633,94.424 L425.113,107.478 C424.118,107.727 423.123,107.851 422.128,107.851 C414.666,107.478 408.323,101.510 408.696,93.678 C408.696,86.219 415.039,79.878 422.502,80.251 L494.141,80.624 C497.499,80.624 500.484,83.235 500.857,86.219 C501.603,90.321 499.365,93.678 495.633,94.424 ZM416.158,67.197 C415.661,67.943 415.039,68.565 414.293,69.062 C408.696,73.911 399.741,73.165 394.891,67.197 C390.040,61.230 390.786,52.651 396.756,47.803 L452.351,2.674 C454.590,0.436 458.321,0.436 460.933,2.674 C463.918,4.911 464.291,9.387 462.052,12.371 L416.158,67.197 ZM405.711,221.606 C406.457,224.963 404.592,228.320 401.234,229.439 C397.876,230.558 393.771,229.066 392.652,225.336 L367.280,158.575 C367.031,157.829 366.782,156.958 366.533,155.964 C365.414,148.504 370.638,141.418 378.100,139.926 C385.563,138.807 392.652,144.029 394.144,151.488 L405.711,221.606 ZM316.908,218.623 C315.416,221.606 311.685,222.725 308.700,221.606 C304.968,220.487 303.103,216.385 304.595,213.028 L328.475,145.521 C328.724,144.775 329.097,144.029 329.594,143.283 C333.326,136.569 341.907,134.705 348.624,138.434 C354.967,142.164 357.205,150.742 353.474,157.456 L316.908,218.623 ZM403.472,141.791 C397.502,136.942 396.756,128.364 401.607,122.397 C406.830,116.802 415.412,116.056 421.382,120.905 L475.858,167.153 C478.470,169.391 478.843,173.120 477.350,175.731 C475.485,179.088 471.380,180.207 468.022,178.342 L405.338,143.283 C404.592,143.034 403.970,142.537 403.472,141.791 Z" class="cls-5"/>
    <path d="M374.742,101.883 C372.876,107.478 366.533,110.462 360.937,108.597 C360.937,108.597 351.235,105.240 336.311,100.018 C329.221,97.408 320.639,94.424 311.311,91.067 C309.073,90.321 306.710,89.575 304.222,88.829 C302.978,88.332 301.735,87.959 300.491,87.711 L298.998,86.965 L297.879,86.965 C295.267,86.219 293.029,86.592 290.790,87.338 C290.043,87.586 289.422,87.835 288.924,88.083 C288.427,88.332 287.929,88.581 287.432,88.829 C287.432,89.202 287.432,89.202 287.059,89.202 C287.059,89.202 286.312,89.948 285.939,90.321 L284.447,91.440 L284.074,92.186 L282.954,93.678 C282.208,94.424 281.337,95.294 280.342,96.289 C278.850,98.278 277.233,100.143 275.492,101.883 C269.149,108.970 262.806,116.056 257.582,121.651 C253.104,127.245 249.000,131.721 246.015,135.078 C243.403,138.061 243.403,142.537 246.388,145.521 L255.343,154.472 C258.328,157.456 258.701,162.677 255.716,166.034 L145.272,291.352 C143.780,292.843 141.541,293.962 138.929,293.962 C136.691,293.962 134.452,293.216 132.959,291.725 L118.408,277.179 C115.796,274.568 111.318,274.568 108.707,277.179 L75.499,310.000 L41.172,276.060 L74.379,243.239 C76.991,240.628 76.991,236.152 74.379,233.541 L59.828,218.996 C58.335,217.504 57.216,215.266 57.589,213.028 C57.589,210.417 58.708,208.179 60.201,206.688 L118.781,155.591 C119.278,155.094 119.527,154.596 119.527,154.099 C119.527,153.353 119.154,152.856 118.408,152.607 L110.945,148.877 C109.080,147.759 106.841,148.131 105.722,149.250 L29.232,213.028 C22.516,218.996 12.441,218.623 6.098,212.282 C5.601,211.785 5.228,211.412 4.979,211.163 C-0.991,203.704 -0.245,192.888 7.218,186.920 L83.334,123.143 C95.274,113.072 112.065,111.208 126.243,117.921 L140.049,125.007 C145.272,127.618 151.989,126.872 156.466,122.770 L186.316,97.035 C189.674,94.051 194.524,94.051 197.883,97.408 L206.837,106.359 C209.822,108.970 214.300,109.343 217.285,106.732 C220.643,103.748 225.120,99.646 230.717,94.797 C236.687,89.575 243.403,83.608 250.493,77.267 C252.483,75.527 254.348,73.911 256.090,72.419 C257.084,71.424 258.079,70.554 259.074,69.808 L260.567,68.689 L262.059,67.197 L262.806,66.451 L264.298,65.332 C265.044,64.959 265.044,64.586 266.537,63.841 C268.403,62.722 270.641,61.230 272.507,60.484 C274.497,59.489 276.362,58.743 278.104,58.246 C280.094,57.500 282.084,57.003 284.074,56.754 C291.909,55.262 300.118,56.381 307.207,58.992 L310.192,60.111 L311.685,60.857 C312.928,61.354 314.048,61.976 315.043,62.722 C317.530,63.716 319.769,64.711 321.759,65.705 C330.714,70.181 338.922,73.911 346.012,77.267 C359.817,84.354 369.518,88.829 369.518,88.829 C373.996,91.067 376.608,96.662 374.742,101.883 ZM190.793,138.807 L103.856,214.520 L137.437,247.714 L174.003,206.688 L160.570,193.634 C157.959,190.650 157.959,186.547 160.570,183.936 C163.182,180.953 167.660,180.953 170.272,183.936 L182.958,196.244 L191.539,186.547 L179.600,174.612 C176.615,172.001 176.615,167.526 179.600,164.915 C182.211,162.304 186.689,162.304 189.301,164.915 L200.494,176.477 L213.554,161.558 L190.793,138.807 ZM284.447,91.813 L284.074,92.186 C284.074,92.186 284.322,91.937 284.820,91.440 L284.447,91.813 Z" class="cls-6"/>
  </g>
</svg>
